M48
; DRILL file {KiCad 9.0.1} date 2025-04-19T19:30:10+0200
; FORMAT={-:-/ absolute / inch / decimal}
; #@! TF.CreationDate,2025-04-19T19:30:10+02:00
; #@! TF.GenerationSoftware,Kicad,Pcbnew,9.0.1
; #@! TF.FileFunction,Plated,1,2,PTH
FMAT,2
INCH
; #@! TA.AperFunction,Plated,PTH,ViaDrill
T1C0.0118
; #@! TA.AperFunction,Plated,PTH,ComponentDrill
T2C0.0157
; #@! TA.AperFunction,Plated,PTH,ComponentDrill
T3C0.0217
; #@! TA.AperFunction,Plated,PTH,ComponentDrill
T4C0.0276
; #@! TA.AperFunction,Plated,PTH,ComponentDrill
T5C0.0394
; #@! TA.AperFunction,Plated,PTH,ViaDrill
T6C0.1378
%
G90
G05
T1
X3.002Y-3.2874
X3.0413Y-3.4547
X3.0413Y-3.6024
X3.0413Y-3.7598
X3.1791Y-4.065
X3.1791Y-4.252
X3.2185Y-4.6063
X3.2185Y-4.7343
X3.3071Y-3.937
X3.3169Y-4.7343
X3.3169Y-4.813
X3.3268Y-3.6122
X3.3307Y-4.3858
X3.3366Y-4.2421
X3.3366Y-4.2913
X3.3366Y-4.3307
X3.3661Y-3.7598
X3.3661Y-4.6654
X3.3661Y-4.7244
X3.3754Y-4.8824
X3.376Y-4.1339
X3.376Y-4.7913
X3.3957Y-3.4547
X3.4055Y-4.6654
X3.4055Y-4.7244
X3.4159Y-4.8617
X3.437Y-3.1929
X3.4449Y-4.8819
X3.4488Y-3.5315
X3.4547Y-4.8031
X3.4606Y-3.0827
X3.4646Y-3.8189
X3.4843Y-3.8898
X3.4941Y-4.0059
X3.4941Y-4.4193
X3.5531Y-4.4193
X3.5531Y-4.8917
X3.563Y-4.5177
X3.5669Y-3.3858
X3.5827Y-4.9114
X3.5866Y-4.5177
X3.622Y-4.065
X3.622Y-4.2008
X3.622Y-4.4193
X3.622Y-4.9508
X3.6398Y-4.1831
X3.6417Y-4.4567
X3.6713Y-4.4193
X3.689Y-3.3353
X3.6909Y-3.2677
X3.6988Y-5.0295
X3.7008Y-4.4291
X3.7146Y-3.3117
X3.7205Y-3.2677
X3.7205Y-5.1673
X3.7426Y-4.4552
X3.75Y-3.2677
X3.752Y-4.5177
X3.7589Y-4.4055
X3.7589Y-4.4331
X3.7697Y-4.0748
X3.7756Y-4.5177
X3.7992Y-4.0197
X3.8032Y-3.7894
X3.8189Y-3.8287
X3.8189Y-4.2224
X3.8189Y-4.3209
X3.8465Y-4.4193
X3.8583Y-3.7008
X3.8583Y-4.2815
X3.9173Y-4.3209
X3.937Y-3.7008
X3.9567Y-4.6457
X3.9646Y-4.5157
X3.9665Y-4.9409
X4.0157Y-3.5039
X4.0157Y-3.5827
X4.0157Y-3.6614
X4.0157Y-3.7008
X4.0256Y-4.2421
X4.0551Y-4.8622
X4.0846Y-4.4193
X4.0945Y-3.5039
X4.0945Y-3.5827
X4.0945Y-3.6614
X4.1339Y-3.7283
X4.1575Y-3.413
X4.1634Y-4.4193
X4.1811Y-3.3907
X4.1831Y-4.7539
X4.189Y-3.5827
X4.1929Y-4.2421
X4.2008Y-3.3691
X4.2126Y-3.2677
X4.2126Y-3.6417
X4.2421Y-3.2677
X4.2421Y-3.5138
X4.2421Y-3.6122
X4.2618Y-4.4783
X4.2618Y-4.5768
X4.3307Y-4.1732
X4.3701Y-3.437
X4.3701Y-3.4646
X4.3898Y-3.8681
X4.3898Y-4.0394
X4.4193Y-3.2776
X4.4193Y-3.3169
X4.4291Y-4.1732
X4.4567Y-4.5276
X4.4587Y-3.9961
X4.4685Y-4.9803
X4.498Y-3.1398
X4.5079Y-3.6811
X4.5276Y-3.7402
X4.5355Y-3.6595
X4.5571Y-3.7205
X4.5669Y-3.6122
X4.5768Y-3.5827
X4.5768Y-4.1732
X4.58Y-3.8419
X4.6069Y-3.815
X4.6201Y-3.7666
X4.626Y-4.8425
X4.6457Y-4.6457
X4.6555Y-3.5098
X4.689Y-3.4882
X4.7352Y-3.315
X4.7352Y-3.3583
X4.7402Y-3.3898
X4.7441Y-4.1732
X4.7539Y-4.0059
X4.813Y-3.3858
X4.8228Y-3.6909
X4.8524Y-4.1634
X4.8819Y-4.5276
X4.9606Y-4.1634
X5.0689Y-3.6909
X5.0787Y-4.8228
X5.0886Y-3.4843
X5.1083Y-4.6457
X5.1575Y-3.4843
X5.1772Y-3.9075
X5.1772Y-5.0
X5.2264Y-3.4843
X5.2461Y-3.6811
X5.2756Y-3.4843
X5.2854Y-4.065
X5.3248Y-3.6811
X5.3543Y-3.4843
X5.3543Y-4.5276
X5.4232Y-3.4843
X5.4232Y-3.6811
X5.4232Y-4.124
X5.4232Y-4.2717
X5.4921Y-3.4843
X5.502Y-4.6654
X5.5118Y-3.6811
X5.5217Y-4.4587
X5.5709Y-3.4843
X5.6201Y-3.1988
X5.6201Y-3.3268
X5.6201Y-3.6811
X5.6496Y-3.4843
X5.6496Y-4.1732
X5.6693Y-3.3268
X5.6791Y-3.1988
X5.689Y-4.813
X5.6988Y-3.6811
X5.7185Y-3.49
X5.7185Y-3.5965
X5.7382Y-4.6161
X5.7579Y-4.4488
X5.8465Y-3.9961
X5.8563Y-5.0098
X5.9154Y-3.7795
X5.9154Y-4.3209
X5.935Y-4.5276
X6.063Y-4.6654
X6.1024Y-2.9921
X6.1122Y-4.1142
X6.122Y-3.7205
X6.122Y-4.311
X6.1319Y-3.622
X6.1417Y-4.5571
X6.1516Y-3.8287
X6.1811Y-2.9921
X6.1811Y-3.189
X6.189Y-4.1654
X6.2205Y-4.8425
X6.2402Y-4.2126
X6.2598Y-2.9921
X6.2598Y-3.189
X6.2894Y-4.2126
X6.2992Y-3.7992
X6.3386Y-2.9921
X6.3386Y-2.9921
X6.3386Y-3.189
X6.3484Y-4.813
X6.3681Y-5.0098
X6.378Y-4.5472
X6.4173Y-2.9921
X6.4173Y-3.189
X6.437Y-3.7992
X6.4469Y-3.937
X6.4469Y-4.0945
X6.4567Y-4.9114
X6.4665Y-4.6358
X6.4961Y-2.9921
X6.4961Y-3.189
X6.5059Y-3.622
X6.5059Y-3.6713
X6.5059Y-3.7205
X6.5157Y-3.1004
X6.5157Y-4.1142
X6.5157Y-4.2323
X6.5748Y-2.9921
X6.5748Y-3.7795
X6.6339Y-4.5866
X6.6831Y-3.8484
X6.7323Y-4.1654
X6.7815Y-3.7205
X6.7815Y-4.0551
X6.7913Y-3.7992
X6.811Y-4.2618
X6.8465Y-3.8504
X6.8504Y-4.124
T2
X3.3642Y-5.0093
X3.3799Y-5.0368
X3.4114Y-5.0368
X3.4272Y-5.0093
X3.4429Y-5.0368
X3.4587Y-5.0093
X3.4902Y-5.0093
X3.5059Y-5.0368
X3.5216Y-5.0093
X3.5374Y-5.0368
X3.5689Y-5.0368
X3.5846Y-5.0093
T5
X3.1201Y-4.3783
X3.1201Y-4.4783
X3.1201Y-4.5783
X4.5543Y-3.0512
X4.6543Y-3.0512
X4.7114Y-3.8878
X4.7543Y-3.0512
X4.8114Y-3.8878
X4.8543Y-3.0512
X4.9114Y-3.8878
X4.9543Y-3.0512
X5.0114Y-3.8878
X5.0543Y-3.0512
X5.1543Y-3.0512
X5.2543Y-3.0512
X5.2937Y-3.937
X5.3543Y-3.0512
X5.3937Y-3.937
X5.4543Y-3.0512
X5.4937Y-3.937
X5.5543Y-3.0512
X5.5937Y-3.937
X5.6543Y-3.0512
X5.7543Y-3.0512
X5.8543Y-3.0512
T6
X3.0709Y-3.0709
X3.0709Y-5.1969
X6.7717Y-3.0709
X6.7717Y-5.1969
T3
G00X3.2976Y-5.1939
M15
G01X3.2976Y-5.2175
M16
G05
G00X3.3118Y-5.0211
M15
G01X3.3118Y-5.0447
M16
G05
G00X3.637Y-5.0211
M15
G01X3.637Y-5.0447
M16
G05
G00X3.6512Y-5.1939
M15
G01X3.6512Y-5.2175
M16
G05
T4
G00X5.9823Y-4.8819
M15
G01X5.9823Y-4.9331
M16
G05
G00X5.9823Y-5.1142
M15
G01X5.9823Y-5.1654
M16
G05
G00X6.5374Y-4.8819
M15
G01X6.5374Y-4.9331
M16
G05
G00X6.5374Y-5.1142
M15
G01X6.5374Y-5.1654
M16
G05
M30
